<?xml version="1.0" encoding="utf-8"?>
<!-- Generator: Adobe Illustrator 21.1.0, SVG Export Plug-In . SVG Version: 6.00 Build 0)  -->
<svg version="1.1" id="Layer_1" xmlns="http://www.w3.org/2000/svg" xmlns:xlink="http://www.w3.org/1999/xlink" x="0px" y="0px"
	 viewBox="0 0 75.2 79.5" style="enable-background:new 0 0 75.2 79.5;" xml:space="preserve">
<style type="text/css">
	.st0{fill:#FFFFFF;}
	.st1{fill:#DBB71D;}
	.st2{fill-rule:evenodd;clip-rule:evenodd;fill:#DBB71D;}
	.st3{fill-rule:evenodd;clip-rule:evenodd;fill:#FFFFFF;}
</style>
<path class="st0" d="M51.5,62.5h-45c-2.8,0-5-2.2-5-5v-51c0-2.8,2.2-5,5-5h32l18,16v40C56.5,60.3,54.3,62.5,51.5,62.5"/>
<path class="st1" d="M51.5,64h-45C2.9,64,0,61.1,0,57.5v-51C0,2.9,2.9,0,6.5,0h32.6L58,16.8v40.7C58,61.1,55.1,64,51.5,64z M6.5,3
	C4.6,3,3,4.6,3,6.5v51C3,59.4,4.6,61,6.5,61h45c1.9,0,3.5-1.6,3.5-3.5V18.2L37.9,3H6.5z"/>
<polygon class="st1" points="57,17 39,17 39,1 "/>
<path class="st2" d="M69.8,78c-1.5,0-2.6-1-3.7-2.1L53.6,63.4C50,65.6,44.5,68,39.3,68c-13.5,0-24.5-11-24.5-24.4
	c0-13.5,11-24.4,24.5-24.4c13.5,0,24.5,11,24.5,24.4c0,4.5-1.7,9.8-4.4,14l12.5,12.5c1.2,1.2,1.9,2.5,1.9,3.7c0,1.1-0.5,2.1-1.3,3
	C71.6,77.5,70.7,78,69.8,78 M39.3,26.6c-9.4,0-17,7.6-17,17c0,9.4,7.6,17,17,17c9.4,0,17-7.6,17-17C56.3,34.2,48.7,26.6,39.3,26.6"
	/>
<path class="st0" d="M39.3,20.7c12.7,0,23,10.3,23,22.9c0,5-2.1,10.4-4.8,14.2l13.4,13.4c1.5,1.5,2,3.1,0.5,4.6
	c-0.6,0.6-1.1,0.8-1.5,0.8c-0.8,0-1.7-0.7-2.6-1.6L53.8,61.4c-3.7,2.6-9.5,5-14.5,5c-12.7,0-23-10.3-23-22.9
	C16.3,30.9,26.6,20.7,39.3,20.7 M39.3,62.1c10.2,0,18.5-8.3,18.5-18.5c0-10.2-8.3-18.5-18.5-18.5c-10.2,0-18.5,8.3-18.5,18.5
	C20.8,53.8,29.1,62.1,39.3,62.1 M39.3,17.7c-14.3,0-26,11.6-26,25.9c0,14.3,11.6,25.9,26,25.9c5,0,10.3-2.1,14-4.2L65,77
	c1.2,1.2,2.7,2.5,4.7,2.5c1.3,0,2.6-0.6,3.7-1.7c1.5-1.5,1.8-3,1.8-4c0-1.7-0.8-3.3-2.3-4.8L61.3,57.3c2.5-4.3,4-9.3,4-13.8
	C65.3,29.3,53.6,17.7,39.3,17.7 M39.3,59.1c-8.6,0-15.5-7-15.5-15.5c0-8.5,7-15.5,15.5-15.5c8.6,0,15.5,7,15.5,15.5
	C54.8,52.1,47.9,59.1,39.3,59.1"/>
<path class="st3" d="M51.6,43.3c0,7.8-6.3,14.1-14.1,14.1c-7.8,0-14.1-6.3-14.1-14.1c0-7.8,6.3-14.1,14.1-14.1
	C45.3,29.2,51.6,35.5,51.6,43.3"/>
<path class="st1" d="M47.5,52.5c-0.4,0-0.8-0.1-1.1-0.4L30.9,36.5c-0.6-0.6-0.6-1.5,0-2.1c0.6-0.6,1.5-0.6,2.1,0l15.5,15.5
	c0.6,0.6,0.6,1.5,0,2.1C48.2,52.3,47.8,52.5,47.5,52.5z"/>
<path class="st1" d="M32,52.5c-0.4,0-0.8-0.1-1.1-0.4c-0.6-0.6-0.6-1.5,0-2.1l15.5-15.5c0.6-0.6,1.5-0.6,2.1,0
	c0.6,0.6,0.6,1.5,0,2.1L33,52C32.7,52.3,32.3,52.5,32,52.5z"/>
</svg>
