<?xml version="1.0" encoding="utf-8"?>
<!-- Generator: Adobe Illustrator 21.1.0, SVG Export Plug-In . SVG Version: 6.00 Build 0)  -->
<svg version="1.1" id="Layer_1" xmlns="http://www.w3.org/2000/svg" xmlns:xlink="http://www.w3.org/1999/xlink" x="0px" y="0px"
	 viewBox="0 0 68.9 71" style="enable-background:new 0 0 68.9 71;" xml:space="preserve">
<style type="text/css">
	.st0{fill:#BBBAC0;}
	.st1{fill:#FFFFFF;}
</style>
<path class="st0" d="M50.7,59H0.1l0-1.5C0,54.3-0.2,43.5,1.2,41.1c1.4-2.3,4.7-3.7,8.6-5.3c1-0.4,2.1-0.9,3.1-1.3
	c2.8-1.2,4.3-2,5-2.4l0-3.5c-0.6-0.8-1.6-2.5-2.2-5.4c-0.1-0.1-0.3-0.1-0.4-0.2c-1.2-0.8-2-2.7-2.1-3.9c0-0.4-0.2-3.6,1.4-4.9
	c0,0,0,0,0,0c-0.3-2.3-0.3-3.7-0.3-4.6C14.8,4.8,19,0,25.4,0c6.4,0,10.6,4.8,11,9.5c0.1,0.9,0,2.3-0.3,4.6c0,0,0,0,0,0
	c1.5,1.3,1.4,4.5,1.4,4.9c-0.1,1.2-0.9,3.1-2.1,3.9c-0.1,0.1-0.3,0.2-0.4,0.2c-0.5,3-1.5,4.6-2.2,5.4l0,3.5c0.8,0.4,2.3,1.2,5,2.4
	c1.1,0.5,2.1,0.9,3.1,1.3c3.9,1.6,7.2,3,8.6,5.3l0,0c1.4,2.4,1.2,13.2,1.1,16.4L50.7,59z M3,56h44.8c0.1-5.8-0.1-12.2-0.7-13.3l0,0
	c-0.9-1.5-3.9-2.7-7.2-4.1c-1-0.4-2.1-0.9-3.2-1.4c-4.7-2.1-6-2.9-6.1-3l-0.7-0.4l-0.1-6.5l0.5-0.5l0,0c0,0,1.4-1.3,1.8-5.2l0.2-1.8
	l1.4,0.4c0.3-0.3,0.7-1.1,0.7-1.5c0-0.7-0.1-1.6-0.2-2.2L32.8,17l0.3-2.1c0.2-1.7,0.5-4.1,0.4-5.1c-0.3-3.3-3.4-6.8-8-6.8
	c-4.7,0-7.7,3.5-8,6.8c-0.1,1.1,0.2,3.4,0.4,5.1L18,17l-1.5-0.3c-0.2,0.5-0.3,1.5-0.2,2.2c0,0.4,0.4,1.2,0.7,1.5l1.4-0.4l0.2,1.8
	c0.5,3.9,1.8,5.2,1.8,5.2l0.5,0.5l0,0.7l-0.1,5.7l-0.7,0.4c-0.1,0.1-1.4,0.9-6.1,3c-1.1,0.5-2.1,0.9-3.2,1.4
	c-3.2,1.4-6.3,2.6-7.2,4.1C3.1,43.8,2.9,50.2,3,56z"/>
<path class="st1" d="M67.9,53c0,9.4-7.6,17-17,17c-9.4,0-17-7.6-17-17c0-9.4,7.6-17,17-17C60.3,36,67.9,43.6,67.9,53"/>
<path class="st1" d="M50.9,71c-9.9,0-18-8.1-18-18s8.1-18,18-18s18,8.1,18,18S60.8,71,50.9,71z M50.9,37c-8.8,0-16,7.2-16,16
	s7.2,16,16,16s16-7.2,16-16S59.7,37,50.9,37z"/>
<path class="st1" d="M65.9,52.5c0,8-6.5,14.5-14.5,14.5c-8,0-14.5-6.5-14.5-14.5c0-8,6.5-14.5,14.5-14.5
	C59.4,38,65.9,44.5,65.9,52.5"/>
<path class="st0" d="M51.4,68.5c-8.8,0-16-7.2-16-16s7.2-16,16-16s16,7.2,16,16S60.2,68.5,51.4,68.5z M51.4,39.5
	c-7.2,0-13,5.8-13,13s5.8,13,13,13s13-5.8,13-13S58.6,39.5,51.4,39.5z"/>
<rect x="36.7" y="51.7" transform="matrix(0.7068 -0.7074 0.7074 0.7068 -22.2666 51.4696)" class="st0" width="28.6" height="1.8"/>
<path class="st0" d="M41.5,64l-2-2l20.9-20.9l2,2L41.5,64z M40.9,62.1l0.6,0.6L61,43.1l-0.6-0.6L40.9,62.1z"/>
</svg>
