<?xml version="1.0" encoding="utf-8"?>
<!-- Generator: Adobe Illustrator 21.1.0, SVG Export Plug-In . SVG Version: 6.00 Build 0)  -->
<svg version="1.1" id="Layer_1" xmlns="http://www.w3.org/2000/svg" xmlns:xlink="http://www.w3.org/1999/xlink" x="0px" y="0px"
	 viewBox="0 0 130 107" style="enable-background:new 0 0 130 107;" xml:space="preserve">
<style type="text/css">
	.st0{fill:#FFFFFF;}
	.st1{fill:#BBBAC0;}
	.st2{fill:#999999;}
</style>
<path class="st0" d="M4,85.5c-1.4,0-2.5-1.1-2.5-2.5V4c0-1.4,1.1-2.5,2.5-2.5h122c1.4,0,2.5,1.1,2.5,2.5v79c0,1.4-1.1,2.5-2.5,2.5H4
	z"/>
<path class="st1" d="M126,3c0.6,0,1,0.4,1,1v79c0,0.6-0.4,1-1,1H4c-0.6,0-1-0.4-1-1V4c0-0.6,0.4-1,1-1H126 M126,0H4C1.8,0,0,1.8,0,4
	v79c0,2.2,1.8,4,4,4h122c2.2,0,4-1.8,4-4V4C130,1.8,128.2,0,126,0"/>
<path class="st2" d="M56.1,28.2c2.3-2.2,5.4-3.3,9.3-3.3c3.7,0,6.6,1,8.8,2.9c2.2,1.9,3.3,4.3,3.3,7.3c0,1.8-0.4,3.2-1.2,4.4
	c-0.8,1.1-2.4,2.8-4.9,4.9c-1.8,1.6-3,3.3-3.5,4.4c-0.5,1.1-0.8,2.8-0.8,5.3h-4.9c0-2.4,0.3-4.8,0.9-6.3c0.6-1.5,2-3.4,4.2-5.3
	l2.2-2.1c0.7-0.6,1.2-1.2,1.6-1.9c0.8-1.1,1.1-2.3,1.1-3.5c0-1.7-0.5-3.1-1.6-4.3c-1.1-1.2-2.9-1.8-5.4-1.8c-3.1,0-5.3,1-6.5,3.1
	c-0.7,1.2-1.1,2.6-1.2,5h-4.9C52.7,34.6,53.8,30.4,56.1,28.2 M62,56h5v8h-5V56z"/>
<rect x="38" y="104" class="st1" width="53" height="3"/>
<rect x="64" y="87" class="st1" width="3" height="18"/>
</svg>
