<?xml version="1.0" encoding="utf-8"?>
<!-- Generator: Adobe Illustrator 21.1.0, SVG Export Plug-In . SVG Version: 6.00 Build 0)  -->
<svg version="1.1" id="Layer_1" xmlns="http://www.w3.org/2000/svg" xmlns:xlink="http://www.w3.org/1999/xlink" x="0px" y="0px"
	 viewBox="0 0 187 104" style="enable-background:new 0 0 187 104;" xml:space="preserve">
<style type="text/css">
	.st0{fill:#BBBAC0;}
	.st1{fill:#E26A61;}
	.st2{fill:#FFFFFF;}
	.st3{fill:#CCCCCC;}
</style>
<rect x="47" y="15" class="st0" width="5" height="3"/>
<path class="st0" d="M52.1,18.1h-5.3v-3.3h5.3V18.1z M47.1,17.9h4.8v-2.8h-4.8V17.9z"/>
<path class="st0" d="M156,104H30V6.5C30,2.9,32.9,0,36.5,0h113c3.6,0,6.5,2.9,6.5,6.5V104z M33,101h120V6.5c0-1.9-1.6-3.5-3.5-3.5
	h-113C34.6,3,33,4.6,33,6.5V101z"/>
<polygon class="st0" points="58.3,71 45.1,55.9 32.9,70.9 30.6,69 45,51.2 58.3,66.5 72.2,51.4 87.3,66.6 101.9,51.4 117.5,67.7 
	115.3,69.8 101.9,55.7 87.4,70.9 72.3,55.7 "/>
<polygon class="st0" points="141.7,71 128.5,55.9 117.4,69.4 115.1,67.6 128.4,51.2 141.7,66.4 153.2,52.5 155.5,54.5 "/>
<rect x="67" y="15" class="st0" width="87" height="3"/>
<rect x="37" y="15" class="st0" width="5" height="3"/>
<path class="st0" d="M42.1,18.1h-5.3v-3.3h5.3V18.1z M37.1,17.9h4.8v-2.8h-4.8V17.9z"/>
<rect x="57" y="15" class="st0" width="5" height="3"/>
<path class="st0" d="M62.1,18.1h-5.3v-3.3h5.3V18.1z M57.1,17.9h4.8v-2.8h-4.8V17.9z"/>
<path class="st1" d="M140,70.6l11.2-17.1c0.5-0.8,1.8-0.9,2.4-0.2l11.4,17.4c0.5,0.8-0.1,2.3-1.2,2.3h-22.6
	C140.1,73,139.5,71.4,140,70.6"/>
<path class="st2" d="M154.2,66h-3v-6h3V66z M154.2,68h-3v3h3V68z"/>
<rect y="101" class="st3" width="187" height="3"/>
</svg>
